STARTFONT 2.1
FONT -sun-chevara-medium-r-normal--10-100-75-75-p-88-adobe-fontspecific
SIZE 10 75 75
FONTBOUNDINGBOX 21 14 -3 -3

STARTPROPERTIES 28
FOUNDRY "sun"
FAMILY_NAME "chevara"
WEIGHT_NAME "medium"
SLANT "r"
SETWIDTH_NAME "normal"
ADD_STYLE_NAME ""
PIXEL_SIZE 10
POINT_SIZE 100
RESOLUTION_X 75
RESOLUTION_Y 75
SPACING "p"
AVERAGE_WIDTH 88
CHARSET_REGISTRY "adobe"
CHARSET_ENCODING "fontspecific"
COPYRIGHT "© 1999 Sun Microsystems, Inc."
RAW_PIXELSIZE 1000
RAW_POINTSIZE 964
RAW_ASCENT 1047
RAW_DESCENT 285
RAW_AVERAGE_WIDTH 8445
FACE_NAME "ChevaraNormal"
_XMBDFED_INFO "Edited with xmbdfed 2.4."
WEIGHT 10
X_HEIGHT -1
QUAD_WIDTH 9
DEFAULT_CHAR 4
FONT_DESCENT 3
FONT_ASCENT 11
ENDPROPERTIES

CHARS 195

STARTCHAR char32
ENCODING 32
SWIDTH 43 0
DWIDTH 5 0
BBX 0 0 0 0
BITMAP
ENDCHAR

STARTCHAR char33
ENCODING 33
SWIDTH 34 0
DWIDTH 4 0
BBX 3 7 1 0
BITMAP
E0
60
60
20
20
60
60
ENDCHAR

STARTCHAR char34
ENCODING 34
SWIDTH 51 0
DWIDTH 6 0
BBX 5 4 1 4
BITMAP
50
B8
50
10
ENDCHAR

STARTCHAR char35
ENCODING 35
SWIDTH 51 0
DWIDTH 6 0
BBX 5 8 0 0
BITMAP
28
28
78
30
30
F8
50
50
ENDCHAR

STARTCHAR char36
ENCODING 36
SWIDTH 7 0
DWIDTH 11 0
BBX 10 9 2 -1
BITMAP
1E80
6B80
EA80
BF80
7F80
4F40
6AC0
FF80
0A00
ENDCHAR

STARTCHAR char37
ENCODING 37
SWIDTH 50 0
DWIDTH 16 0
BBX 14 7 3 0
BITMAP
7880
DC80
D578
5A48
36CC
04C8
0878
ENDCHAR

STARTCHAR char38
ENCODING 38
SWIDTH 7 0
DWIDTH 11 0
BBX 9 7 3 0
BITMAP
3C00
3400
2B80
5F00
D600
CE00
FF00
ENDCHAR

STARTCHAR char39
ENCODING 39
SWIDTH 25 0
DWIDTH 3 0
BBX 2 4 1 4
BITMAP
40
80
C0
40
ENDCHAR

STARTCHAR char40
ENCODING 40
SWIDTH 43 0
DWIDTH 5 0
BBX 4 8 1 0
BITMAP
10
20
60
E0
E0
A0
60
30
ENDCHAR

STARTCHAR char41
ENCODING 41
SWIDTH 43 0
DWIDTH 5 0
BBX 4 8 1 0
BITMAP
80
40
60
70
70
50
60
40
ENDCHAR

STARTCHAR char42
ENCODING 42
SWIDTH 34 0
DWIDTH 4 0
BBX 3 3 1 4
BITMAP
40
40
A0
ENDCHAR

STARTCHAR char43
ENCODING 43
SWIDTH 68 0
DWIDTH 8 0
BBX 6 6 2 0
BITMAP
20
20
FC
20
20
20
ENDCHAR

STARTCHAR char44
ENCODING 44
SWIDTH 25 0
DWIDTH 3 0
BBX 2 3 1 -1
BITMAP
C0
C0
40
ENDCHAR

STARTCHAR char45
ENCODING 45
SWIDTH 43 0
DWIDTH 5 0
BBX 4 1 1 3
BITMAP
F0
ENDCHAR

STARTCHAR char46
ENCODING 46
SWIDTH 25 0
DWIDTH 3 0
BBX 2 2 1 0
BITMAP
C0
C0
ENDCHAR

STARTCHAR char47
ENCODING 47
SWIDTH 51 0
DWIDTH 6 0
BBX 6 7 1 0
BITMAP
08
08
10
20
20
40
80
ENDCHAR

STARTCHAR char48
ENCODING 48
SWIDTH 7 0
DWIDTH 11 0
BBX 9 7 2 0
BITMAP
3E00
6700
E780
E780
A680
6500
3E00
ENDCHAR

STARTCHAR char49
ENCODING 49
SWIDTH 60 0
DWIDTH 7 0
BBX 6 8 2 0
BITMAP
10
F0
70
70
70
70
50
FC
ENDCHAR

STARTCHAR char50
ENCODING 50
SWIDTH 77 0
DWIDTH 9 0
BBX 9 7 2 0
BITMAP
FE00
EB00
A700
5C00
3E80
7F00
FF00
ENDCHAR

STARTCHAR char51
ENCODING 51
SWIDTH 86 0
DWIDTH 10 0
BBX 8 7 2 0
BITMAP
FE
E7
46
1E
E7
A5
7E
ENDCHAR

STARTCHAR char52
ENCODING 52
SWIDTH 86 0
DWIDTH 10 0
BBX 8 8 2 0
BITMAP
04
0C
3C
7C
54
FF
0C
3F
ENDCHAR

STARTCHAR char53
ENCODING 53
SWIDTH 77 0
DWIDTH 9 0
BBX 9 8 2 0
BITMAP
4080
7F00
FE00
FC00
0600
ED00
EB00
7E00
ENDCHAR

STARTCHAR char54
ENCODING 54
SWIDTH 86 0
DWIDTH 10 0
BBX 9 7 2 0
BITMAP
7F00
6700
FF00
E700
A680
6500
3F00
ENDCHAR

STARTCHAR char55
ENCODING 55
SWIDTH 77 0
DWIDTH 9 0
BBX 8 7 2 0
BITMAP
FF
FE
84
0C
18
28
38
ENDCHAR

STARTCHAR char56
ENCODING 56
SWIDTH 86 0
DWIDTH 10 0
BBX 9 7 2 0
BITMAP
7E00
F900
7E00
3200
CD00
8380
7F00
ENDCHAR

STARTCHAR char57
ENCODING 57
SWIDTH 86 0
DWIDTH 10 0
BBX 8 7 2 0
BITMAP
7E
F7
B7
67
3D
77
7E
ENDCHAR

STARTCHAR char58
ENCODING 58
SWIDTH 34 0
DWIDTH 4 0
BBX 2 5 2 0
BITMAP
C0
C0
00
C0
C0
ENDCHAR

STARTCHAR char59
ENCODING 59
SWIDTH 34 0
DWIDTH 4 0
BBX 3 6 1 -1
BITMAP
E0
60
00
60
E0
20
ENDCHAR

STARTCHAR char60
ENCODING 60
SWIDTH 60 0
DWIDTH 7 0
BBX 6 5 0 0
BITMAP
18
20
C0
30
0C
ENDCHAR

STARTCHAR char61
ENCODING 61
SWIDTH 68 0
DWIDTH 8 0
BBX 7 2 1 2
BITMAP
FE
FE
ENDCHAR

STARTCHAR char62
ENCODING 62
SWIDTH 60 0
DWIDTH 7 0
BBX 5 5 1 0
BITMAP
C0
30
18
60
80
ENDCHAR

STARTCHAR char63
ENCODING 63
SWIDTH 60 0
DWIDTH 7 0
BBX 6 7 1 0
BITMAP
7C
FC
7C
38
20
30
30
ENDCHAR

STARTCHAR char64
ENCODING 64
SWIDTH 7 0
DWIDTH 11 0
BBX 8 8 1 0
BITMAP
1C
22
5B
A5
A5
AD
7E
3C
ENDCHAR

STARTCHAR char65
ENCODING 65
SWIDTH 16 0
DWIDTH 12 0
BBX 11 7 2 0
BITMAP
0400
0C00
0A00
1F00
3F00
6380
F7C0
ENDCHAR

STARTCHAR char66
ENCODING 66
SWIDTH 16 0
DWIDTH 12 0
BBX 10 7 2 0
BITMAP
7F80
3940
3980
3F80
39C0
3940
3F80
ENDCHAR

STARTCHAR char67
ENCODING 67
SWIDTH 7 0
DWIDTH 11 0
BBX 9 7 2 0
BITMAP
3F80
7080
E080
E000
A080
7180
3E00
ENDCHAR

STARTCHAR char68
ENCODING 68
SWIDTH 16 0
DWIDTH 12 0
BBX 11 7 2 0
BITMAP
FF80
39C0
39E0
39E0
2920
38C0
3F80
ENDCHAR

STARTCHAR char69
ENCODING 69
SWIDTH 7 0
DWIDTH 11 0
BBX 10 7 2 0
BITMAP
FFC0
7880
7A00
7E00
7A40
78C0
FFC0
ENDCHAR

STARTCHAR char70
ENCODING 70
SWIDTH 7 0
DWIDTH 11 0
BBX 9 7 2 0
BITMAP
7F80
7080
7200
7E00
5200
7000
FC00
ENDCHAR

STARTCHAR char71
ENCODING 71
SWIDTH 16 0
DWIDTH 12 0
BBX 11 7 2 0
BITMAP
3F80
7080
9000
F3E0
9140
71C0
1FC0
ENDCHAR

STARTCHAR char72
ENCODING 72
SWIDTH 33 0
DWIDTH 14 0
BBX 12 7 3 0
BITMAP
71F0
71C0
7140
7FC0
71C0
5140
FFF0
ENDCHAR

STARTCHAR char73
ENCODING 73
SWIDTH 60 0
DWIDTH 7 0
BBX 6 7 2 0
BITMAP
7C
70
70
70
70
70
F0
ENDCHAR

STARTCHAR char74
ENCODING 74
SWIDTH 77 0
DWIDTH 9 0
BBX 7 7 2 0
BITMAP
1E
1C
1C
1C
DC
D4
F8
ENDCHAR

STARTCHAR char75
ENCODING 75
SWIDTH 33 0
DWIDTH 14 0
BBX 12 7 3 0
BITMAP
F3F0
7100
7200
7F00
7580
5280
FBE0
ENDCHAR

STARTCHAR char76
ENCODING 76
SWIDTH 7 0
DWIDTH 11 0
BBX 10 7 2 0
BITMAP
FC00
7000
7000
7000
7040
50C0
3FC0
ENDCHAR

STARTCHAR char77
ENCODING 77
SWIDTH 50 0
DWIDTH 16 0
BBX 14 7 3 0
BITMAP
F07C
68B0
5CF0
5570
4A70
4670
F678
ENDCHAR

STARTCHAR char78
ENCODING 78
SWIDTH 16 0
DWIDTH 12 0
BBX 12 7 2 0
BITMAP
F9F0
3C40
2F40
25C0
22C0
21C0
F0C0
ENDCHAR

STARTCHAR char79
ENCODING 79
SWIDTH 16 0
DWIDTH 12 0
BBX 11 7 2 0
BITMAP
3FC0
71C0
F1E0
B1E0
51A0
3140
1F80
ENDCHAR

STARTCHAR char80
ENCODING 80
SWIDTH 16 0
DWIDTH 12 0
BBX 10 7 2 0
BITMAP
FFC0
39C0
3940
3F80
3800
2800
FC00
ENDCHAR

STARTCHAR char81
ENCODING 81
SWIDTH 16 0
DWIDTH 12 0
BBX 12 8 2 -1
BITMAP
3FC0
79E0
F1E0
F160
93A0
77D0
1FE0
00C0
ENDCHAR

STARTCHAR char82
ENCODING 82
SWIDTH 16 0
DWIDTH 12 0
BBX 10 7 2 0
BITMAP
3FC0
39C0
3D40
3B80
3D80
3A80
F9C0
ENDCHAR

STARTCHAR char83
ENCODING 83
SWIDTH 7 0
DWIDTH 11 0
BBX 10 7 2 0
BITMAP
7F80
E080
BF80
7880
4740
60C0
FF80
ENDCHAR

STARTCHAR char84
ENCODING 84
SWIDTH 7 0
DWIDTH 11 0
BBX 10 7 2 0
BITMAP
FFC0
9C40
9C40
1C00
1C00
1400
3C00
ENDCHAR

STARTCHAR char85
ENCODING 85
SWIDTH 16 0
DWIDTH 12 0
BBX 10 7 2 0
BITMAP
FDC0
3080
7080
7080
5080
7080
1F00
ENDCHAR

STARTCHAR char86
ENCODING 86
SWIDTH 16 0
DWIDTH 12 0
BBX 11 7 2 0
BITMAP
78C0
3880
1C80
1500
0F00
0A00
0400
ENDCHAR

STARTCHAR char87
ENCODING 87
SWIDTH 59 0
DWIDTH 17 0
BBX 15 7 3 0
BITMAP
FFCE
29C8
19A8
1768
0C50
0C20
0430
ENDCHAR

STARTCHAR char88
ENCODING 88
SWIDTH 16 0
DWIDTH 12 0
BBX 11 7 2 0
BITMAP
3DC0
2D00
1600
0A00
1500
1380
73C0
ENDCHAR

STARTCHAR char89
ENCODING 89
SWIDTH 16 0
DWIDTH 12 0
BBX 11 7 2 0
BITMAP
7DC0
3880
1D00
1600
0E00
0E00
3E00
ENDCHAR

STARTCHAR char90
ENCODING 90
SWIDTH 86 0
DWIDTH 10 0
BBX 8 7 2 0
BITMAP
FF
CB
16
3C
29
53
FF
ENDCHAR

STARTCHAR char91
ENCODING 91
SWIDTH 51 0
DWIDTH 6 0
BBX 4 7 2 0
BITMAP
F0
E0
E0
E0
E0
A0
F0
ENDCHAR

STARTCHAR char92
ENCODING 92
SWIDTH 25 0
DWIDTH 3 0
BBX 3 8 0 0
BITMAP
80
80
40
40
40
20
20
20
ENDCHAR

STARTCHAR char93
ENCODING 93
SWIDTH 51 0
DWIDTH 6 0
BBX 3 7 2 0
BITMAP
E0
E0
E0
E0
E0
A0
E0
ENDCHAR

STARTCHAR char94
ENCODING 94
SWIDTH 0 0
DWIDTH 0 0
BBX 4 2 -2 8
BITMAP
60
B0
ENDCHAR

STARTCHAR char95
ENCODING 95
SWIDTH 51 0
DWIDTH 6 0
BBX 6 1 0 -2
BITMAP
FC
ENDCHAR

STARTCHAR char96
ENCODING 96
SWIDTH 0 0
DWIDTH 0 0
BBX 3 2 -2 7
BITMAP
40
60
ENDCHAR

STARTCHAR char97
ENCODING 97
SWIDTH 86 0
DWIDTH 10 0
BBX 9 6 2 0
BITMAP
0800
1800
3C00
2C00
3E00
EF80
ENDCHAR

STARTCHAR char98
ENCODING 98
SWIDTH 86 0
DWIDTH 10 0
BBX 8 6 2 0
BITMAP
FE
55
7E
55
77
7E
ENDCHAR

STARTCHAR char99
ENCODING 99
SWIDTH 77 0
DWIDTH 9 0
BBX 7 6 2 0
BITMAP
7E
E2
E0
A0
62
3C
ENDCHAR

STARTCHAR char100
ENCODING 100
SWIDTH 7 0
DWIDTH 11 0
BBX 9 6 2 0
BITMAP
7F00
7380
7380
5280
7380
FE00
ENDCHAR

STARTCHAR char101
ENCODING 101
SWIDTH 77 0
DWIDTH 9 0
BBX 8 6 2 0
BITMAP
FF
61
6C
54
73
7F
ENDCHAR

STARTCHAR char102
ENCODING 102
SWIDTH 77 0
DWIDTH 9 0
BBX 8 6 2 0
BITMAP
7F
51
7C
64
60
78
ENDCHAR

STARTCHAR char103
ENCODING 103
SWIDTH 86 0
DWIDTH 10 0
BBX 8 6 2 0
BITMAP
7F
E1
E0
EF
67
3F
ENDCHAR

STARTCHAR char104
ENCODING 104
SWIDTH 7 0
DWIDTH 11 0
BBX 10 6 2 0
BITMAP
FFC0
5380
7F80
5280
7380
FFC0
ENDCHAR

STARTCHAR char105
ENCODING 105
SWIDTH 51 0
DWIDTH 6 0
BBX 6 6 1 0
BITMAP
F8
70
70
50
70
FC
ENDCHAR

STARTCHAR char106
ENCODING 106
SWIDTH 60 0
DWIDTH 7 0
BBX 7 6 1 0
BITMAP
1E
18
14
18
D8
78
ENDCHAR

STARTCHAR char107
ENCODING 107
SWIDTH 7 0
DWIDTH 11 0
BBX 11 6 2 0
BITMAP
FBC0
7200
7C00
5600
7700
FF80
ENDCHAR

STARTCHAR char108
ENCODING 108
SWIDTH 77 0
DWIDTH 9 0
BBX 8 6 2 0
BITMAP
78
50
70
50
71
FF
ENDCHAR

STARTCHAR char109
ENCODING 109
SWIDTH 24 0
DWIDTH 13 0
BBX 12 6 2 0
BITMAP
30F0
6940
59C0
4EC0
4CC0
64C0
ENDCHAR

STARTCHAR char110
ENCODING 110
SWIDTH 86 0
DWIDTH 10 0
BBX 8 6 2 0
BITMAP
F3
79
5D
47
43
41
ENDCHAR

STARTCHAR char111
ENCODING 111
SWIDTH 86 0
DWIDTH 10 0
BBX 9 6 2 0
BITMAP
3E00
6300
E380
A280
6300
3E00
ENDCHAR

STARTCHAR char112
ENCODING 112
SWIDTH 86 0
DWIDTH 10 0
BBX 8 6 2 0
BITMAP
7E
53
73
7E
70
F8
ENDCHAR

STARTCHAR char113
ENCODING 113
SWIDTH 86 0
DWIDTH 10 0
BBX 9 7 2 -1
BITMAP
7E00
E300
E380
A280
6F00
3F80
0300
ENDCHAR

STARTCHAR char114
ENCODING 114
SWIDTH 86 0
DWIDTH 10 0
BBX 8 6 2 0
BITMAP
7E
57
7D
5E
76
7F
ENDCHAR

STARTCHAR char115
ENCODING 115
SWIDTH 77 0
DWIDTH 9 0
BBX 8 6 2 0
BITMAP
7E
C2
FE
3D
C3
FE
ENDCHAR

STARTCHAR char116
ENCODING 116
SWIDTH 77 0
DWIDTH 9 0
BBX 9 6 1 0
BITMAP
FF80
D480
9C80
1400
1C00
1E00
ENDCHAR

STARTCHAR char117
ENCODING 117
SWIDTH 86 0
DWIDTH 10 0
BBX 8 6 2 0
BITMAP
FB
62
62
62
62
3C
ENDCHAR

STARTCHAR char118
ENCODING 118
SWIDTH 86 0
DWIDTH 10 0
BBX 7 6 2 0
BITMAP
FA
72
34
1C
14
08
ENDCHAR

STARTCHAR char119
ENCODING 119
SWIDTH 33 0
DWIDTH 14 0
BBX 13 6 2 0
BITMAP
FFF8
3250
1BD0
1EE0
08C0
0840
ENDCHAR

STARTCHAR char120
ENCODING 120
SWIDTH 86 0
DWIDTH 10 0
BBX 9 6 2 0
BITMAP
7300
2E00
1800
1400
2E00
FF80
ENDCHAR

STARTCHAR char121
ENCODING 121
SWIDTH 86 0
DWIDTH 10 0
BBX 8 6 3 0
BITMAP
E7
64
68
30
30
7C
ENDCHAR

STARTCHAR char122
ENCODING 122
SWIDTH 68 0
DWIDTH 8 0
BBX 7 6 2 0
BITMAP
FE
94
28
52
E2
FE
ENDCHAR

STARTCHAR char123
ENCODING 123
SWIDTH 34 0
DWIDTH 4 0
BBX 3 9 0 -2
BITMAP
60
40
40
40
80
40
40
40
60
ENDCHAR

STARTCHAR char124
ENCODING 124
SWIDTH 25 0
DWIDTH 3 0
BBX 1 8 1 0
BITMAP
80
80
80
80
80
80
80
80
ENDCHAR

STARTCHAR char125
ENCODING 125
SWIDTH 34 0
DWIDTH 4 0
BBX 3 9 0 -2
BITMAP
C0
40
40
60
20
40
40
40
C0
ENDCHAR

STARTCHAR char126
ENCODING 126
SWIDTH 0 0
DWIDTH 0 0
BBX 6 2 -3 8
BITMAP
64
98
ENDCHAR

STARTCHAR char128
ENCODING 128
SWIDTH 7 0
DWIDTH 11 0
BBX 10 7 1 0
BITMAP
1FC0
3840
5040
FF00
5040
38C0
1F00
ENDCHAR

STARTCHAR char130
ENCODING 130
SWIDTH 25 0
DWIDTH 3 0
BBX 2 3 1 -1
BITMAP
C0
C0
40
ENDCHAR

STARTCHAR char131
ENCODING 131
SWIDTH 0 0
DWIDTH 0 0
BBX 4 2 -2 8
BITMAP
60
B0
ENDCHAR

STARTCHAR char132
ENCODING 132
SWIDTH 51 0
DWIDTH 6 0
BBX 5 3 1 -1
BITMAP
50
D8
48
ENDCHAR

STARTCHAR char133
ENCODING 133
SWIDTH 7 0
DWIDTH 11 0
BBX 7 1 2 0
BITMAP
92
ENDCHAR

STARTCHAR char134
ENCODING 134
SWIDTH 60 0
DWIDTH 7 0
BBX 6 6 1 1
BITMAP
38
10
D4
FC
90
18
ENDCHAR

STARTCHAR char136
ENCODING 136
SWIDTH 0 0
DWIDTH 0 0
BBX 3 3 -1 6
BITMAP
C0
C0
E0
ENDCHAR

STARTCHAR char139
ENCODING 139
SWIDTH 34 0
DWIDTH 4 0
BBX 2 4 1 1
BITMAP
40
80
80
40
ENDCHAR

STARTCHAR char140
ENCODING 140
SWIDTH 67 0
DWIDTH 18 0
BBX 15 7 3 0
BITMAP
3FFE
71C2
F1C8
F1F8
91CA
71C6
1FFE
ENDCHAR

STARTCHAR char145
ENCODING 145
SWIDTH 25 0
DWIDTH 3 0
BBX 2 3 1 4
BITMAP
80
C0
40
ENDCHAR

STARTCHAR char146
ENCODING 146
SWIDTH 25 0
DWIDTH 3 0
BBX 2 3 1 5
BITMAP
40
C0
40
ENDCHAR

STARTCHAR char147
ENCODING 147
SWIDTH 51 0
DWIDTH 6 0
BBX 5 3 1 4
BITMAP
D0
F8
58
ENDCHAR

STARTCHAR char148
ENCODING 148
SWIDTH 51 0
DWIDTH 6 0
BBX 5 4 1 4
BITMAP
50
B8
50
10
ENDCHAR

STARTCHAR char149
ENCODING 149
SWIDTH 34 0
DWIDTH 4 0
BBX 3 3 0 2
BITMAP
E0
E0
E0
ENDCHAR

STARTCHAR char150
ENCODING 150
SWIDTH 7 0
DWIDTH 11 0
BBX 8 1 2 3
BITMAP
FF
ENDCHAR

STARTCHAR char151
ENCODING 151
SWIDTH 68 0
DWIDTH 8 0
BBX 7 1 1 3
BITMAP
FE
ENDCHAR

STARTCHAR char152
ENCODING 152
SWIDTH 0 0
DWIDTH 0 0
BBX 6 3 -3 6
BITMAP
64
7C
50
ENDCHAR

STARTCHAR char153
ENCODING 153
SWIDTH 50 0
DWIDTH 16 0
BBX 13 7 3 4
BITMAP
FB18
AB30
2330
22B0
22B0
2250
7358
ENDCHAR

STARTCHAR char155
ENCODING 155
SWIDTH 34 0
DWIDTH 4 0
BBX 2 4 1 1
BITMAP
80
80
C0
80
ENDCHAR

STARTCHAR char156
ENCODING 156
SWIDTH 41 0
DWIDTH 15 0
BBX 12 6 3 0
BITMAP
7FF0
A310
E3C0
A340
6310
3FF0
ENDCHAR

STARTCHAR char159
ENCODING 159
SWIDTH 16 0
DWIDTH 12 0
BBX 11 10 2 0
BITMAP
1B00
1B00
0000
7DC0
3880
1D00
1600
0E00
0E00
3E00
ENDCHAR

STARTCHAR char160
ENCODING 160
SWIDTH 77 0
DWIDTH 9 0
BBX 0 0 0 0
BITMAP
ENDCHAR

STARTCHAR char161
ENCODING 161
SWIDTH 34 0
DWIDTH 4 0
BBX 3 7 1 0
BITMAP
C0
40
40
40
C0
C0
C0
ENDCHAR

STARTCHAR char162
ENCODING 162
SWIDTH 77 0
DWIDTH 9 0
BBX 7 8 2 -1
BITMAP
08
76
F2
F2
F0
72
7E
08
ENDCHAR

STARTCHAR char163
ENCODING 163
SWIDTH 7 0
DWIDTH 11 0
BBX 9 7 2 0
BITMAP
3F80
5280
7100
FE00
7080
7380
FF80
ENDCHAR

STARTCHAR char164
ENCODING 164
SWIDTH 0 0
DWIDTH 0 0
BBX 3 2 -1 8
BITMAP
40
40
ENDCHAR

STARTCHAR char165
ENCODING 165
SWIDTH 0 0
DWIDTH 0 0
BBX 4 3 -2 7
BITMAP
D0
70
60
ENDCHAR

STARTCHAR char167
ENCODING 167
SWIDTH 77 0
DWIDTH 9 0
BBX 7 11 2 -3
BITMAP
32
4E
F4
8C
7E
C2
FE
7A
86
E2
9C
ENDCHAR

STARTCHAR char168
ENCODING 168
SWIDTH 0 0
DWIDTH 0 0
BBX 5 2 -2 6
BITMAP
D0
78
ENDCHAR

STARTCHAR char169
ENCODING 169
SWIDTH 33 0
DWIDTH 14 0
BBX 11 11 3 0
BITMAP
0F00
3080
4740
4920
9120
9020
9020
91A0
4E20
20C0
1F00
ENDCHAR

STARTCHAR char170
ENCODING 170
SWIDTH 0 0
DWIDTH 0 0
BBX 4 2 -2 8
BITMAP
F0
F0
ENDCHAR

STARTCHAR char171
ENCODING 171
SWIDTH 43 0
DWIDTH 5 0
BBX 4 3 1 2
BITMAP
50
A0
50
ENDCHAR

STARTCHAR char172
ENCODING 172
SWIDTH 24 0
DWIDTH 13 0
BBX 11 5 2 0
BITMAP
FFE0
0020
0020
0020
0020
ENDCHAR

STARTCHAR char174
ENCODING 174
SWIDTH 33 0
DWIDTH 14 0
BBX 11 11 3 0
BITMAP
0F00
3080
5E40
4920
8920
8E20
8A20
8B20
5DA0
20C0
1F00
ENDCHAR

STARTCHAR char176
ENCODING 176
SWIDTH 60 0
DWIDTH 7 0
BBX 5 5 2 6
BITMAP
70
88
88
88
70
ENDCHAR

STARTCHAR char177
ENCODING 177
SWIDTH 86 0
DWIDTH 10 0
BBX 8 10 2 0
BITMAP
10
10
10
FF
10
10
10
10
00
FF
ENDCHAR

STARTCHAR char180
ENCODING 180
SWIDTH 0 0
DWIDTH 0 0
BBX 2 2 0 7
BITMAP
80
80
ENDCHAR

STARTCHAR char182
ENCODING 182
SWIDTH 60 0
DWIDTH 7 0
BBX 5 9 1 -2
BITMAP
78
D0
D0
50
50
50
50
50
50
ENDCHAR

STARTCHAR char183
ENCODING 183
SWIDTH 25 0
DWIDTH 3 0
BBX 1 2 1 2
BITMAP
80
80
ENDCHAR

STARTCHAR char184
ENCODING 184
SWIDTH 0 0
DWIDTH 0 0
BBX 2 2 -1 -2
BITMAP
40
40
ENDCHAR

STARTCHAR char186
ENCODING 186
SWIDTH 0 0
DWIDTH 0 0
BBX 6 2 -3 8
BITMAP
64
98
ENDCHAR

STARTCHAR char187
ENCODING 187
SWIDTH 43 0
DWIDTH 5 0
BBX 4 3 1 2
BITMAP
50
50
50
ENDCHAR

STARTCHAR char191
ENCODING 191
SWIDTH 60 0
DWIDTH 7 0
BBX 6 8 1 0
BITMAP
10
38
10
10
70
BC
CC
7C
ENDCHAR

STARTCHAR char192
ENCODING 192
SWIDTH 16 0
DWIDTH 12 0
BBX 11 10 2 0
BITMAP
0800
0400
0400
0400
0E00
0A00
1F00
3F00
6380
F7C0
ENDCHAR

STARTCHAR char193
ENCODING 193
SWIDTH 16 0
DWIDTH 12 0
BBX 11 10 2 0
BITMAP
0600
0400
0400
0400
0E00
0A00
1F00
3F00
6380
F7C0
ENDCHAR

STARTCHAR char194
ENCODING 194
SWIDTH 16 0
DWIDTH 12 0
BBX 11 10 2 0
BITMAP
0E00
0E00
0400
0400
0E00
0A00
1F00
1D00
2380
F7C0
ENDCHAR

STARTCHAR char195
ENCODING 195
SWIDTH 16 0
DWIDTH 12 0
BBX 11 10 2 0
BITMAP
1B00
2700
0400
0400
0E00
0A00
1F00
1D00
2380
F7C0
ENDCHAR

STARTCHAR char196
ENCODING 196
SWIDTH 16 0
DWIDTH 12 0
BBX 11 10 2 0
BITMAP
1B00
1B00
0400
0400
0E00
1A00
1700
3C80
2380
F7C0
ENDCHAR

STARTCHAR char197
ENCODING 197
SWIDTH 16 0
DWIDTH 12 0
BBX 11 10 2 0
BITMAP
0E00
0A00
0600
0400
0E00
1A00
1700
3D00
2380
E7C0
ENDCHAR

STARTCHAR char198
ENCODING 198
SWIDTH 59 0
DWIDTH 17 0
BBX 14 7 3 0
BITMAP
07FC
0784
0B90
13F0
1F94
2284
F7FC
ENDCHAR

STARTCHAR char199
ENCODING 199
SWIDTH 7 0
DWIDTH 11 0
BBX 9 10 2 -2
BITMAP
0C00
3380
7080
E080
E000
A080
6080
3300
0E00
0400
ENDCHAR

STARTCHAR char200
ENCODING 200
SWIDTH 7 0
DWIDTH 11 0
BBX 10 10 2 0
BITMAP
0800
0800
0000
FFC0
7840
7A00
7E00
7A40
78C0
FFC0
ENDCHAR

STARTCHAR char201
ENCODING 201
SWIDTH 7 0
DWIDTH 11 0
BBX 10 10 2 0
BITMAP
0400
0400
0000
FFC0
7840
7A00
7E00
7A40
78C0
FFC0
ENDCHAR

STARTCHAR char202
ENCODING 202
SWIDTH 7 0
DWIDTH 11 0
BBX 10 10 2 0
BITMAP
0C00
0E00
0000
FFC0
7840
7A00
7E00
7A40
78C0
FFC0
ENDCHAR

STARTCHAR char203
ENCODING 203
SWIDTH 7 0
DWIDTH 11 0
BBX 10 10 2 0
BITMAP
1E00
1E00
0000
FFC0
3880
3A00
3E00
3940
38C0
FFC0
ENDCHAR

STARTCHAR char204
ENCODING 204
SWIDTH 60 0
DWIDTH 7 0
BBX 6 10 2 0
BITMAP
60
20
00
7C
70
70
70
70
70
F0
ENDCHAR

STARTCHAR char205
ENCODING 205
SWIDTH 60 0
DWIDTH 7 0
BBX 6 10 2 0
BITMAP
30
20
00
7C
70
70
70
70
70
F0
ENDCHAR

STARTCHAR char206
ENCODING 206
SWIDTH 60 0
DWIDTH 7 0
BBX 6 10 2 0
BITMAP
30
50
00
7C
70
70
70
70
70
F0
ENDCHAR

STARTCHAR char207
ENCODING 207
SWIDTH 60 0
DWIDTH 7 0
BBX 6 10 2 0
BITMAP
58
D8
00
7C
70
70
70
70
70
F0
ENDCHAR

STARTCHAR char209
ENCODING 209
SWIDTH 16 0
DWIDTH 12 0
BBX 12 10 2 0
BITMAP
0B80
1F00
0000
F9F0
3C40
2B40
27C0
22C0
20C0
F040
ENDCHAR

STARTCHAR char210
ENCODING 210
SWIDTH 16 0
DWIDTH 12 0
BBX 11 10 2 0
BITMAP
0C00
0400
0000
3FC0
71C0
F1E0
B1E0
51A0
3140
1F80
ENDCHAR

STARTCHAR char211
ENCODING 211
SWIDTH 16 0
DWIDTH 12 0
BBX 11 10 2 0
BITMAP
0600
0400
0000
3FC0
71C0
F1E0
B1E0
51A0
3140
1F80
ENDCHAR

STARTCHAR char212
ENCODING 212
SWIDTH 16 0
DWIDTH 12 0
BBX 11 10 2 0
BITMAP
0600
0B00
0600
3980
71C0
F1E0
B1E0
51A0
3140
1F80
ENDCHAR

STARTCHAR char213
ENCODING 213
SWIDTH 16 0
DWIDTH 12 0
BBX 11 10 2 0
BITMAP
1E80
1700
0600
3980
71C0
F1E0
B1E0
51A0
3140
1F80
ENDCHAR

STARTCHAR char214
ENCODING 214
SWIDTH 16 0
DWIDTH 12 0
BBX 11 10 2 0
BITMAP
0F00
1F00
0000
3FC0
79C0
F1E0
B1E0
51A0
3140
1F80
ENDCHAR

STARTCHAR char216
ENCODING 216
SWIDTH 16 0
DWIDTH 12 0
BBX 11 8 2 0
BITMAP
0040
3F80
71E0
F7E0
BDE0
59A0
3140
DF80
ENDCHAR

STARTCHAR char217
ENCODING 217
SWIDTH 16 0
DWIDTH 12 0
BBX 10 10 2 0
BITMAP
0800
0400
0000
FDC0
3080
7080
7080
5080
7080
1F00
ENDCHAR

STARTCHAR char218
ENCODING 218
SWIDTH 16 0
DWIDTH 12 0
BBX 10 10 2 0
BITMAP
0600
0400
0000
FDC0
3080
7080
7080
5080
7080
1F00
ENDCHAR

STARTCHAR char219
ENCODING 219
SWIDTH 16 0
DWIDTH 12 0
BBX 10 10 2 0
BITMAP
0E00
1600
0000
FDC0
3080
7080
7080
5080
7080
1F00
ENDCHAR

STARTCHAR char220
ENCODING 220
SWIDTH 16 0
DWIDTH 12 0
BBX 10 10 2 0
BITMAP
0D00
1F00
0000
FDC0
3080
7080
7080
5080
7080
1F00
ENDCHAR

STARTCHAR char223
ENCODING 223
SWIDTH 50 0
DWIDTH 16 0
BBX 16 6 1 0
BITMAP
7F7F
F2C1
EEFE
3D3D
C343
7E7E
ENDCHAR

STARTCHAR char224
ENCODING 224
SWIDTH 86 0
DWIDTH 10 0
BBX 9 9 2 0
BITMAP
1000
1800
0000
1800
1800
3C00
2C00
7E00
EF80
ENDCHAR

STARTCHAR char225
ENCODING 225
SWIDTH 86 0
DWIDTH 10 0
BBX 9 9 2 0
BITMAP
0800
0800
0000
1800
1800
3C00
2C00
7E00
EF80
ENDCHAR

STARTCHAR char226
ENCODING 226
SWIDTH 86 0
DWIDTH 10 0
BBX 9 9 2 0
BITMAP
0800
1C00
1C00
1800
1800
3C00
3C00
4E00
EF80
ENDCHAR

STARTCHAR char227
ENCODING 227
SWIDTH 86 0
DWIDTH 10 0
BBX 9 9 2 0
BITMAP
1200
2E00
3800
1800
1800
3C00
3C00
4E00
EF80
ENDCHAR

STARTCHAR char228
ENCODING 228
SWIDTH 86 0
DWIDTH 10 0
BBX 8 9 2 0
BITMAP
24
3C
3C
08
18
3C
3C
4E
EF
ENDCHAR

STARTCHAR char229
ENCODING 229
SWIDTH 86 0
DWIDTH 10 0
BBX 8 9 2 0
BITMAP
18
18
18
08
18
3C
3C
4E
CF
ENDCHAR

STARTCHAR char230
ENCODING 230
SWIDTH 33 0
DWIDTH 14 0
BBX 12 6 3 0
BITMAP
0FF0
1F10
37C0
3D40
4330
CFF0
ENDCHAR

STARTCHAR char231
ENCODING 231
SWIDTH 77 0
DWIDTH 9 0
BBX 7 9 2 -2
BITMAP
3A
66
E2
E0
A0
62
3C
18
18
ENDCHAR

STARTCHAR char232
ENCODING 232
SWIDTH 77 0
DWIDTH 9 0
BBX 8 9 2 0
BITMAP
10
18
00
FF
61
6C
5C
73
7F
ENDCHAR

STARTCHAR char233
ENCODING 233
SWIDTH 77 0
DWIDTH 9 0
BBX 8 9 2 0
BITMAP
08
08
00
FF
61
6C
5C
73
7F
ENDCHAR

STARTCHAR char234
ENCODING 234
SWIDTH 77 0
DWIDTH 9 0
BBX 8 9 2 0
BITMAP
18
18
1C
FF
61
6C
5C
71
FF
ENDCHAR

STARTCHAR char235
ENCODING 235
SWIDTH 77 0
DWIDTH 9 0
BBX 8 9 2 0
BITMAP
10
3C
16
FF
71
7C
54
71
FF
ENDCHAR

STARTCHAR char236
ENCODING 236
SWIDTH 51 0
DWIDTH 6 0
BBX 6 9 1 0
BITMAP
60
20
00
F8
50
70
50
70
FC
ENDCHAR

STARTCHAR char237
ENCODING 237
SWIDTH 51 0
DWIDTH 6 0
BBX 6 9 1 0
BITMAP
20
60
00
F8
50
70
50
70
FC
ENDCHAR

STARTCHAR char238
ENCODING 238
SWIDTH 51 0
DWIDTH 6 0
BBX 6 9 1 0
BITMAP
20
70
50
B8
50
70
50
70
FC
ENDCHAR

STARTCHAR char239
ENCODING 239
SWIDTH 51 0
DWIDTH 6 0
BBX 6 9 1 0
BITMAP
50
78
58
B8
48
70
48
70
FC
ENDCHAR

STARTCHAR char241
ENCODING 241
SWIDTH 86 0
DWIDTH 10 0
BBX 8 8 2 0
BITMAP
3A
2C
F3
69
5D
47
43
41
ENDCHAR

STARTCHAR char242
ENCODING 242
SWIDTH 86 0
DWIDTH 10 0
BBX 9 8 2 0
BITMAP
0800
0000
3E00
6300
E380
A280
6300
3E00
ENDCHAR

STARTCHAR char243
ENCODING 243
SWIDTH 86 0
DWIDTH 10 0
BBX 9 8 2 0
BITMAP
0C00
0000
3E00
6300
E380
A280
6300
3E00
ENDCHAR

STARTCHAR char244
ENCODING 244
SWIDTH 86 0
DWIDTH 10 0
BBX 9 9 2 0
BITMAP
0C00
1C00
0400
3E00
6300
E380
A280
6300
3E00
ENDCHAR

STARTCHAR char245
ENCODING 245
SWIDTH 86 0
DWIDTH 10 0
BBX 9 8 2 0
BITMAP
3A00
2C00
3E00
6300
E380
A280
6300
3E00
ENDCHAR

STARTCHAR char246
ENCODING 246
SWIDTH 86 0
DWIDTH 10 0
BBX 9 9 2 0
BITMAP
1400
3600
1E00
2600
E300
E380
A280
6300
3E00
ENDCHAR

STARTCHAR char247
ENCODING 247
SWIDTH 86 0
DWIDTH 10 0
BBX 8 6 2 1
BITMAP
18
18
FF
00
18
18
ENDCHAR

STARTCHAR char248
ENCODING 248
SWIDTH 86 0
DWIDTH 10 0
BBX 9 6 2 0
BITMAP
3E00
E700
EB80
BA80
6300
FE00
ENDCHAR

STARTCHAR char249
ENCODING 249
SWIDTH 86 0
DWIDTH 10 0
BBX 8 9 2 0
BITMAP
10
18
00
FB
62
62
62
62
3C
ENDCHAR

STARTCHAR char250
ENCODING 250
SWIDTH 86 0
DWIDTH 10 0
BBX 8 9 2 0
BITMAP
08
08
00
FB
62
62
62
62
3C
ENDCHAR

STARTCHAR char251
ENCODING 251
SWIDTH 86 0
DWIDTH 10 0
BBX 8 9 2 0
BITMAP
18
14
2C
FB
62
62
62
62
3C
ENDCHAR

STARTCHAR char252
ENCODING 252
SWIDTH 86 0
DWIDTH 10 0
BBX 8 8 2 0
BITMAP
1C
1C
FB
62
62
52
62
3C
ENDCHAR

STARTCHAR char255
ENCODING 255
SWIDTH 86 0
DWIDTH 10 0
BBX 8 9 3 0
BITMAP
28
78
28
E7
64
58
28
30
7C
ENDCHAR
ENDFONT
